<svg width="720" height="540" viewBox="0 0 720 540" fill="none" xmlns="http://www.w3.org/2000/svg">
  <defs>
    <linearGradient id="bg" x1="0" y1="0" x2="1" y2="1">
      <stop offset="0%" stop-color="#0C1714" />
      <stop offset="100%" stop-color="#0E1F1A" />
    </linearGradient>
    <linearGradient id="accent" x1="0" y1="0" x2="1" y2="1">
      <stop offset="0%" stop-color="#0ED09D" stop-opacity="0.85" />
      <stop offset="100%" stop-color="#0AA671" stop-opacity="0.95" />
    </linearGradient>
  </defs>
  <rect width="720" height="540" rx="22" fill="url(#bg)" />
  <rect x="42" y="52" width="636" height="436" rx="18" stroke="#1E3A32" stroke-width="2" stroke-dasharray="8 10" />
  <g stroke="#0ED09D" stroke-width="3" stroke-linecap="round" stroke-linejoin="round">
    <path d="M120 190H260" />
    <path d="M260 190L310 150" />
    <path d="M260 190L310 230" />
    <path d="M370 190H520" />
    <path d="M520 190L570 150" />
    <path d="M520 190L570 230" />
    <path d="M210 330H360" />
    <path d="M360 330L410 290" />
    <path d="M360 330L410 370" />
    <path d="M470 330H600" />
  </g>
  <g fill="#0ED09D" opacity="0.22">
    <circle cx="260" cy="190" r="74" />
    <circle cx="520" cy="190" r="74" />
    <circle cx="360" cy="330" r="74" />
  </g>
  <g fill="#0ED09D" opacity="0.35">
    <circle cx="120" cy="190" r="12" />
    <circle cx="210" cy="330" r="12" />
  </g>
  <g fill="url(#accent)">
    <rect x="300" y="120" width="80" height="44" rx="10" />
    <rect x="300" y="216" width="80" height="44" rx="10" />
    <rect x="560" y="120" width="80" height="44" rx="10" />
    <rect x="560" y="216" width="80" height="44" rx="10" />
    <rect x="400" y="260" width="80" height="44" rx="10" />
    <rect x="400" y="356" width="80" height="44" rx="10" />
    <rect x="600" y="312" width="80" height="44" rx="10" />
  </g>
  <g stroke="#0ED09D" stroke-width="2.5">
    <rect x="96" y="160" width="48" height="60" rx="8" fill="#0E1B18" />
    <rect x="186" y="300" width="48" height="60" rx="8" fill="#0E1B18" />
  </g>
  <g fill="#CFEFE4" font-family="'Inter', 'Segoe UI', system-ui" font-size="15" letter-spacing="0.4">
    <text x="110" y="194">Расчёт</text>
    <text x="198" y="334">ЧПУ</text>
    <text x="312" y="147">Резка</text>
    <text x="312" y="243">Сборка</text>
    <text x="572" y="147">Контроль</text>
    <text x="572" y="243">Покраска</text>
    <text x="412" y="287">Финиш</text>
    <text x="412" y="383">Отгрузка</text>
    <text x="612" y="339">Монтаж</text>
  </g>
  <g stroke="#0ED09D" stroke-width="2" opacity="0.32">
    <path d="M120 190C120 130 210 118 260 148" />
    <path d="M520 190C520 138 440 120 370 150" />
    <path d="M360 330C360 280 300 252 240 268" />
  </g>
  <g fill="#8BD7BF" font-family="'Inter', 'Segoe UI', system-ui" font-size="12" letter-spacing="0.35">
    <text x="90" y="126">Инжиниринг</text>
    <text x="250" y="120">Материалы</text>
    <text x="380" y="110">Технология</text>
    <text x="560" y="118">Контроль качества</text>
  </g>
</svg>
